<svg width="15" height="15" viewBox="0 0 15 15" fill="none" xmlns="http://www.w3.org/2000/svg">
<path d="M11.6833 1.82364L10.1833 1.03648C8.86656 0.345492 8.2082 0 7.5 0C6.7918 0 6.13344 0.345491 4.81672 1.03647L3.31672 1.82364C1.98641 2.52175 1.20443 2.93212 0.719769 3.48099L7.5 6.87111L14.2802 3.48099C13.7956 2.93212 13.0136 2.52175 11.6833 1.82364Z" fill="white" fill-opacity="0.8"/>
<path d="M14.8113 4.47326L8.0625 7.84764V14.928C8.60094 14.7939 9.21357 14.4724 10.1833 13.9635L11.6833 13.1764C13.297 12.3295 14.1039 11.9061 14.552 11.1452C15 10.3843 15 9.4375 15 7.54387V7.45613C15 6.03664 15 5.14918 14.8113 4.47326Z" fill="white" fill-opacity="0.8"/>
<path d="M6.9375 14.928V7.84764L0.188729 4.47326C0 5.14918 0 6.03664 0 7.45613V7.54387C0 9.4375 0 10.3843 0.448048 11.1452C0.896095 11.9061 1.70297 12.3295 3.31672 13.1764L4.81672 13.9635C5.78643 14.4724 6.39906 14.7939 6.9375 14.928Z" fill="white" fill-opacity="0.8"/>
</svg>
