<svg width="14" height="14" viewBox="0 0 14 14" fill="none" xmlns="http://www.w3.org/2000/svg">
<path fill-rule="evenodd" clip-rule="evenodd" d="M12.6562 13.1938C12.1751 12.7854 11.4499 12.7854 10.9688 13.1938C10.4876 13.6021 9.76244 13.6021 9.28125 13.1938C8.80006 12.7854 8.07494 12.7854 7.59375 13.1938C7.11256 13.6021 6.38744 13.6021 5.90625 13.1938C5.42506 12.7854 4.69994 12.7854 4.21875 13.1938C3.73756 13.6021 3.01244 13.6021 2.53125 13.1938C2.05006 12.7854 1.32494 12.7854 0.84375 13.1938C0.516817 13.4712 0 13.2496 0 12.8321V0.667942C0 0.25037 0.516817 0.0288164 0.84375 0.306236C1.32494 0.714552 2.05006 0.714552 2.53125 0.306236C3.01244 -0.102079 3.73756 -0.102079 4.21875 0.306236C4.69994 0.714552 5.42506 0.714552 5.90625 0.306236C6.38744 -0.102079 7.11256 -0.102079 7.59375 0.306236C8.07494 0.714552 8.80006 0.714552 9.28125 0.306236C9.76244 -0.102079 10.4876 -0.102079 10.9688 0.306236C11.4499 0.714552 12.1751 0.714552 12.6562 0.306236C12.9832 0.0288164 13.5 0.25037 13.5 0.667942V12.8321C13.5 13.2496 12.9832 13.4712 12.6562 13.1938ZM2.8125 6.75C2.8125 6.43934 3.06434 6.1875 3.375 6.1875H10.125C10.4357 6.1875 10.6875 6.43934 10.6875 6.75C10.6875 7.06066 10.4357 7.3125 10.125 7.3125H3.375C3.06434 7.3125 2.8125 7.06066 2.8125 6.75ZM3.375 3.5625C3.06434 3.5625 2.8125 3.81434 2.8125 4.125C2.8125 4.43566 3.06434 4.6875 3.375 4.6875H10.125C10.4357 4.6875 10.6875 4.43566 10.6875 4.125C10.6875 3.81434 10.4357 3.5625 10.125 3.5625H3.375ZM2.8125 9.375C2.8125 9.06434 3.06434 8.8125 3.375 8.8125H10.125C10.4357 8.8125 10.6875 9.06434 10.6875 9.375C10.6875 9.68566 10.4357 9.9375 10.125 9.9375H3.375C3.06434 9.9375 2.8125 9.68566 2.8125 9.375Z" fill="white" fill-opacity="0.8"/>
</svg>
