<svg width="13" height="3" viewBox="0 0 13 3" fill="none" xmlns="http://www.w3.org/2000/svg">
<path d="M1.875 1.25C1.875 1.41576 1.80915 1.57473 1.69194 1.69194C1.57473 1.80915 1.41576 1.875 1.25 1.875C1.08424 1.875 0.925268 1.80915 0.808058 1.69194C0.690848 1.57473 0.625 1.41576 0.625 1.25C0.625 1.08424 0.690848 0.925269 0.808058 0.808059C0.925268 0.690848 1.08424 0.625 1.25 0.625C1.41576 0.625 1.57473 0.690848 1.69194 0.808059C1.80915 0.925269 1.875 1.08424 1.875 1.25ZM6.875 1.25C6.875 1.41576 6.80915 1.57473 6.69194 1.69194C6.57473 1.80915 6.41576 1.875 6.25 1.875C6.08424 1.875 5.92527 1.80915 5.80806 1.69194C5.69085 1.57473 5.625 1.41576 5.625 1.25C5.625 1.08424 5.69085 0.925269 5.80806 0.808059C5.92527 0.690848 6.08424 0.625 6.25 0.625C6.41576 0.625 6.57473 0.690848 6.69194 0.808059C6.80915 0.925269 6.875 1.08424 6.875 1.25ZM11.875 1.25C11.875 1.41576 11.8092 1.57473 11.6919 1.69194C11.5747 1.80915 11.4158 1.875 11.25 1.875C11.0842 1.875 10.9253 1.80915 10.8081 1.69194C10.6908 1.57473 10.625 1.41576 10.625 1.25C10.625 1.08424 10.6908 0.925269 10.8081 0.808059C10.9253 0.690848 11.0842 0.625 11.25 0.625C11.4158 0.625 11.5747 0.690848 11.6919 0.808059C11.8092 0.925269 11.875 1.08424 11.875 1.25Z" stroke="white" stroke-width="1.25" stroke-linecap="round" stroke-linejoin="round"/>
</svg>
