<svg width="44" height="32" viewBox="0 0 44 32" fill="none" xmlns="http://www.w3.org/2000/svg">
<rect width="44" height="32" rx="8" fill="white" fill-opacity="0.08"/>
<rect x="0.5" y="0.5" width="43" height="31" rx="7.5" stroke="white" stroke-opacity="0.06"/>
<g clip-path="url(#clip0_141_130)">
<path d="M12.6666 13.6667H17.3333V18.3333H12.6666V13.6667Z" stroke="white" stroke-opacity="0.8" stroke-width="0.875"/>
<path d="M17.3334 18.3339L19.0834 18.3336C20.0499 18.3335 20.8335 19.1168 20.8336 20.0833C20.8338 21.0498 20.0504 21.8335 19.0839 21.8336C18.1174 21.8338 17.3338 21.0504 17.3336 20.0839L17.3334 18.3339Z" stroke="white" stroke-opacity="0.8" stroke-width="0.875"/>
<path d="M12.6673 18.3339L10.9173 18.3336C9.95077 18.3335 9.16714 19.1168 9.16699 20.0833C9.16684 21.0498 9.95022 21.8335 10.9167 21.8336C11.8832 21.8338 12.6668 21.0504 12.667 20.0839L12.6673 18.3339Z" stroke="white" stroke-opacity="0.8" stroke-width="0.875"/>
<path d="M17.3334 13.6666L19.0834 13.6669C20.0499 13.6671 20.8335 12.8837 20.8336 11.9172C20.8338 10.9507 20.0504 10.1671 19.0839 10.1669C18.1174 10.1668 17.3338 10.9501 17.3336 11.9166L17.3334 13.6666Z" stroke="white" stroke-opacity="0.8" stroke-width="0.875"/>
<path d="M12.6673 13.6666L10.9173 13.6669C9.95077 13.6671 9.16714 12.8837 9.16699 11.9172C9.16684 10.9507 9.95022 10.1671 10.9167 10.1669C11.8832 10.1668 12.6668 10.9501 12.667 11.9166L12.6673 13.6666Z" stroke="white" stroke-opacity="0.8" stroke-width="0.875"/>
</g>
<path d="M27.233 21V10.8182H28.4659V15.8693H28.5852L33.1591 10.8182H34.7699L30.4943 15.4119L34.7699 21H33.2784L29.7386 16.267L28.4659 17.6989V21H27.233Z" fill="white" fill-opacity="0.8"/>
<defs>
<clipPath id="clip0_141_130">
<rect x="8" y="9" width="14" height="14" rx="2.91667" fill="white"/>
</clipPath>
</defs>
</svg>
